HIERARCHY
ROOT Hips
{
 OFFSET 0.000000 0.000000 0.000000
 CHANNELS 6 Xposition Yposition Zposition Yrotation Xrotation Zrotation
 JOINT Chest
 {
  OFFSET 0.000000 9.585900 0.002600
  CHANNELS 3 Yrotation Xrotation Zrotation
  JOINT Chest2
  {
   OFFSET 0.000000 9.601200 -0.005300
   CHANNELS 3 Yrotation Xrotation Zrotation
   JOINT Chest3
   {
    OFFSET 0.000000 9.561800 0.000000
    CHANNELS 3 Yrotation Xrotation Zrotation
    JOINT Chest4
    {
     OFFSET 0.000000 9.552100 0.000000
     CHANNELS 3 Yrotation Xrotation Zrotation
     JOINT Neck
     {
      OFFSET 0.000000 14.453000 0.000000
      CHANNELS 3 Yrotation Xrotation Zrotation
      JOINT Head
      {
       OFFSET 0.000000 8.936500 -0.011300
       CHANNELS 3 Yrotation Xrotation Zrotation
       End Site
       {
        OFFSET 0.000000 17.073600 -0.006000
       }
      }
     }
     JOINT RightCollar
     {
      OFFSET -2.921100 9.558500 0.000000
      CHANNELS 3 Yrotation Xrotation Zrotation
      JOINT RightShoulder
      {
       OFFSET -13.519700 0.000000 0.000000
       CHANNELS 3 Yrotation Xrotation Zrotation
       JOINT RightElbow
       {
        OFFSET 0.000000 -29.696600 0.000000
        CHANNELS 3 Yrotation Xrotation Zrotation
        JOINT RightWrist
        {
         OFFSET 0.000000 -24.004700 0.000000
         CHANNELS 3 Yrotation Xrotation Zrotation
         End Site
         {
          OFFSET 0.000000 -17.728500 0.000000
         }
        }
       }
      }
     }
     JOINT LeftCollar
     {
      OFFSET 2.921100 9.558500 0.000000
      CHANNELS 3 Yrotation Xrotation Zrotation
      JOINT LeftShoulder
      {
       OFFSET 13.519700 0.000000 0.000000
       CHANNELS 3 Yrotation Xrotation Zrotation
       JOINT LeftElbow
       {
        OFFSET 0.000000 -29.696600 0.000000
        CHANNELS 3 Yrotation Xrotation Zrotation
        JOINT LeftWrist
        {
         OFFSET 0.000000 -24.004700 0.000000
         CHANNELS 3 Yrotation Xrotation Zrotation
         End Site
         {
          OFFSET 0.000000 -17.728500 0.000000
         }
        }
       }
      }
     }
    }
   }
  }
 }
 JOINT RightHip
 {
  OFFSET -7.771700 -0.012900 -0.001300
  CHANNELS 3 Yrotation Xrotation Zrotation
  JOINT RightKnee
  {
   OFFSET 0.000000 -40.869800 0.001200
   CHANNELS 3 Yrotation Xrotation Zrotation
   JOINT RightAnkle
   {
    OFFSET 0.000000 -39.717900 0.002100
    CHANNELS 3 Yrotation Xrotation Zrotation
    JOINT RightToe
    {
     OFFSET 0.000000 -4.965400 11.033500
     CHANNELS 3 Yrotation Xrotation Zrotation
     End Site
     {
      OFFSET 0.000000 -1.423100 5.872300
     }
    }
   }
  }
 }
 JOINT LeftHip
 {
  OFFSET 7.771700 -0.012900 -0.001300
  CHANNELS 3 Yrotation Xrotation Zrotation
  JOINT LeftKnee
  {
   OFFSET 0.000000 -40.869800 0.001200
   CHANNELS 3 Yrotation Xrotation Zrotation
   JOINT LeftAnkle
   {
    OFFSET 0.000000 -39.717900 0.002100
    CHANNELS 3 Yrotation Xrotation Zrotation
    JOINT LeftToe
    {
     OFFSET 0.000000 -4.965400 11.033500
     CHANNELS 3 Yrotation Xrotation Zrotation
     End Site
     {
      OFFSET 0.000000 -1.423100 5.872300
     }
    }
   }
  }
 }
}
MOTION
Frames: 16
Frame Time: 0.008333
-103.968596 51.700429 -39.783489 177.486553 -19.537560 -0.225195 -1.884936 11.540575 0.671130 -0.139289 0.812341 0.089948 -0.229386 1.396857 0.179723 -1.673026 10.557502 1.150469 0.119242 16.543377 -2.509165 0.698625 -8.331395 -2.664929 4.852764 15.125994 12.026316 30.909381 -6.506213 -29.803319 81.980025 -59.176825 -120.549622 3.538853 -3.348158 -1.382750 -6.238717 14.949495 -15.571459 -32.952541 -1.024553 30.103984 -54.712711 -77.120774 99.391921 11.859747 0.108940 8.656774 -16.794443 -62.732931 10.004052 -84.458810 80.499324 -92.628992 -4.369796 -10.014622 6.072299 0.366390 -0.812308 0.173209 15.557422 -60.968828 -12.183594 25.080675 84.204048 31.346661 -3.505434 -10.991094 1.610127 0.127170 0.447065 0.069579
-103.973080 51.699796 -39.782874 177.477106 -19.549178 -0.246324 -1.873491 11.549515 0.685586 -0.142313 0.814725 0.087126 -0.225978 1.397916 0.183820 -1.673060 10.564256 1.155532 0.119101 16.541560 -2.508103 0.687024 -8.322780 -2.663735 4.843858 15.115526 11.999038 30.889734 -6.499108 -29.794987 81.959283 -59.146008 -120.542896 3.494072 -3.351579 -1.381524 -6.254582 14.967404 -15.565460 -32.943514 -1.025623 30.105691 -54.676848 -77.052685 99.330463 11.861902 0.080387 8.823848 -16.800591 -62.711529 10.027912 -84.390087 80.497115 -92.562706 -4.351390 -10.003956 6.087826 0.356847 -0.815740 0.164750 15.534066 -60.965905 -12.142790 25.106335 84.209900 31.372024 -3.502945 -10.996470 1.612921 0.127973 0.447724 0.068316
-103.978262 51.699248 -39.782356 177.477785 -19.561083 -0.268537 -1.874351 11.560044 0.693333 -0.145506 0.816432 0.086598 -0.223214 1.400022 0.186072 -1.678708 10.574418 1.157684 0.129124 16.535589 -2.502301 0.686515 -8.322285 -2.663589 4.852481 15.104288 11.988037 30.864179 -6.492278 -29.797876 81.867783 -59.091016 -120.492442 3.526008 -3.336191 -1.450912 -6.250399 14.971226 -15.552311 -32.931869 -1.017061 30.098030 -54.764263 -77.048805 99.424502 11.806124 0.058917 8.954692 -16.812629 -62.690181 10.046176 -84.341656 80.492426 -92.512225 -4.340123 -10.002117 6.094066 0.350068 -0.813299 0.162940 15.545038 -60.960649 -12.141368 25.125989 84.215407 31.409130 -3.503764 -10.993813 1.619840 0.126298 0.443681 0.069368
-103.982958 51.698138 -39.779968 177.455155 -19.561037 -0.287610 -1.863641 11.556892 0.688540 -0.137222 0.820429 0.101602 -0.232192 1.404773 0.176253 -1.675893 10.585827 1.167155 0.136822 16.531412 -2.497360 0.694516 -8.327868 -2.661793 4.872116 15.089284 11.992167 30.813015 -6.467918 -29.823504 81.864209 -59.090434 -120.513185 3.541857 -3.326729 -1.502755 -6.236802 14.967110 -15.533702 -32.921809 -1.005965 30.089192 -54.772935 -77.021294 99.420733 11.795232 0.005745 9.102880 -16.821822 -62.678756 10.085139 -84.303354 80.490132 -92.470100 -4.322978 -10.049685 6.108671 0.313048 -0.766487 0.146325 15.529109 -60.968711 -12.096642 25.144633 84.216880 31.422615 -3.489593 -10.984764 1.627592 0.111770 0.432042 0.064741
-103.992465 51.698525 -39.781834 177.484064 -19.585736 -0.294650 -1.896984 11.580173 0.670419 -0.137617 0.821956 0.101896 -0.228037 1.405760 0.186232 -1.685769 10.595942 1.159393 0.138936 16.534316 -2.494272 0.691324 -8.315116 -2.659414 4.877064 15.084169 11.977538 30.730906 -6.441398 -29.843091 81.963361 -59.123114 -120.609094 3.553400 -3.312040 -1.549711 -6.234315 14.970185 -15.515328 -32.912596 -0.995309 30.076370 -54.770885 -76.995505 99.412885 11.798753 -0.069495 9.250459 -16.823281 -62.653955 10.057268 -84.282957 80.489355 -92.452998 -4.352771 -10.008751 6.103271 0.346332 -0.802331 0.162394 15.525800 -60.945456 -12.115521 25.147045 84.221474 31.429699 -3.513915 -10.991816 1.630499 0.128780 0.438342 0.069120
-103.995141 51.697390 -39.778890 177.466833 -19.581447 -0.328215 -1.875539 11.576236 0.697436 -0.137841 0.823105 0.102208 -0.232148 1.407622 0.185050 -1.683618 10.602793 1.163892 0.136755 16.537027 -2.492197 0.697927 -8.310665 -2.660327 4.854141 15.082646 11.952459 30.709287 -6.434723 -29.837941 81.984801 -59.137396 -120.646899 3.562793 -3.293933 -1.599124 -6.236971 14.976806 -15.498298 -32.884942 -0.987825 30.061820 -54.915559 -77.001121 99.555685 11.778725 -0.137352 9.378984 -16.865671 -62.639568 10.126889 -84.227134 80.492917 -92.396456 -4.324853 -10.062586 6.119132 0.309367 -0.752028 0.145344 15.533900 -60.964497 -12.088093 25.126145 84.232099 31.427053 -3.502292 -10.967597 1.637037 0.116715 0.413223 0.065804
-103.999654 51.697228 -39.778617 177.475260 -19.592615 -0.358079 -1.878284 11.588016 0.715344 -0.137857 0.824359 0.100197 -0.235603 1.411462 0.174370 -1.679246 10.606175 1.178482 0.134156 16.541773 -2.490916 0.705095 -8.304769 -2.663204 4.848223 15.080733 11.943111 30.707531 -6.439977 -29.832410 81.949321 -59.141062 -120.640248 3.574817 -3.266603 -1.659004 -6.233647 14.974223 -15.487928 -32.861686 -0.961727 30.051380 -55.030885 -77.006436 99.667855 11.768912 -0.221676 9.510895 -16.893622 -62.615665 10.157406 -84.184982 80.498149 -92.353003 -4.326624 -10.065364 6.128019 0.305787 -0.750204 0.142579 15.504899 -60.962936 -12.057089 25.126655 84.237686 31.437361 -3.503145 -10.968338 1.640652 0.118494 0.412971 0.064801
-104.008708 51.697537 -39.779941 177.501921 -19.611665 -0.365528 -1.903493 11.607071 0.710103 -0.138612 0.826135 0.092771 -0.235939 1.412881 0.174905 -1.680310 10.610968 1.181544 0.134792 16.560928 -2.498189 0.708693 -8.316984 -2.656120 4.846065 15.078196 11.936400 30.658224 -6.437196 -29.838324 81.974683 -59.177593 -120.686261 3.584133 -3.252712 -1.703211 -6.236752 14.983432 -15.469746 -32.832935 -0.955907 30.035791 -55.135167 -77.017296 99.777359 11.751499 -0.310139 9.638138 -16.880532 -62.592422 10.124878 -84.133226 80.498622 -92.300564 -4.364918 -10.036880 6.122059 0.337435 -0.775594 0.161949 15.507772 -60.943348 -12.084493 25.149808 84.237851 31.473314 -3.525526 -10.978659 1.638937 0.139844 0.423796 0.072841
-104.014470 51.697283 -39.779498 177.514262 -19.619834 -0.387145 -1.910734 11.617041 0.718509 -0.140066 0.826036 0.096830 -0.236123 1.413592 0.175195 -1.683694 10.616339 1.179588 0.138784 16.565625 -2.495690 0.711345 -8.323581 -2.654957 4.850147 15.072862 11.937592 30.551847 -6.419726 -29.837404 82.081921 -59.226155 -120.799963 3.587673 -3.250454 -1.729278 -6.235369 14.993538 -15.451437 -32.782490 -0.931577 30.016784 -55.409613 -77.042181 100.039804 11.728999 -0.388083 9.783767 -16.859421 -62.572557 10.112378 -84.082105 80.487032 -92.234977 -4.376199 -10.052801 6.130661 0.345206 -0.767673 0.162778 15.498407 -60.939986 -12.078296 25.160480 84.238810 31.492288 -3.527228 -10.978664 1.649838 0.137978 0.425180 0.069980
-104.018002 51.695966 -39.775947 177.495434 -19.608553 -0.411354 -1.890070 11.608040 0.737135 -0.138474 0.825740 0.103142 -0.236302 1.414308 0.175528 -1.683504 10.620569 1.178674 0.142373 16.563943 -2.490519 0.712689 -8.301989 -2.655950 4.846229 15.076811 11.926767 30.519409 -6.428103 -29.824937 82.089061 -59.261230 -120.838564 3.590145 -3.235635 -1.761689 -6.236271 15.021763 -15.417708 -32.779489 -0.968858 30.009539 -55.431472 -77.053740 100.059385 11.690436 -0.468698 9.938482 -16.888404 -62.571394 10.173995 -84.032434 80.479593 -92.196563 -4.329363 -10.086638 6.161125 0.295162 -0.737668 0.138979 15.503504 -60.960794 -12.056070 25.163705 84.242378 31.506496 -3.512809 -10.964572 1.659042 0.124476 0.411302 0.062949
-104.025834 51.696294 -39.777378 177.526579 -19.626793 -0.424603 -1.918603 11.628506 0.726697 -0.138534 0.826234 0.103690 -0.236221 1.417095 0.165279 -1.678573 10.621749 1.196869 0.139960 16.571452 -2.488335 0.713137 -8.292705 -2.652842 4.826276 15.083073 11.903724 30.526642 -6.444385 -29.808009 82.052687 -59.300691 -120.848481 3.589678 -3.216989 -1.791415 -6.235177 15.032745 -15.398014 -32.761845 -0.962289 29.999744 -55.569365 -77.062640 100.201109 11.648717 -0.538897 10.092165 -16.896283 -62.550436 10.155819 -83.991908 80.478111 -92.155441 -4.357856 -10.037183 6.153855 0.329697 -0.783655 0.153781 15.490442 -60.945339 -12.068879 25.168024 84.245112 31.519095 -3.530827 -10.972898 1.658489 0.142168 0.419755 0.070468
-104.030629 51.695921 -39.776715 177.538493 -19.632396 -0.449822 -1.925114 11.635015 0.726656 -0.138260 0.827645 0.113156 -0.235356 1.416794 0.167105 -1.675396 10.625874 1.205291 0.137854 16.581154 -2.488057 0.711323 -8.272242 -2.648169 4.815221 15.084703 11.893650 30.479394 -6.453255 -29.786317 82.093794 -59.342052 -120.905827 3.587455 -3.196630 -1.814264 -6.233419 15.043914 -15.379359 -32.727702 -0.928852 29.996284 -55.765781 -77.046325 100.407137 11.638427 -0.595301 10.242532 -16.908629 -62.534471 10.167220 -83.950929 80.476483 -92.102205 -4.362981 -10.035307 6.150031 0.335434 -0.785505 0.158016 15.467206 -60.948607 -12.046874 25.168202 84.248396 31.521389 -3.526350 -10.968543 1.666865 0.135598 0.417552 0.070911
-104.035988 51.695701 -39.776598 177.550363 -19.640928 -0.471771 -1.932578 11.643976 0.741682 -0.134666 0.826719 0.094394 -0.235844 1.418416 0.179686 -1.673874 10.628558 1.214166 0.135911 16.592353 -2.487413 0.710428 -8.274630 -2.647492 4.803872 15.088198 11.884425 30.373033 -6.471259 -29.738638 82.231222 -59.373429 -121.014396 3.581644 -3.178215 -1.831975 -6.229907 15.059338 -15.362252 -32.712569 -0.925138 29.997970 -55.816236 -77.013528 100.465601 11.612600 -0.639088 10.390372 -16.913555 -62.515074 10.173221 -83.899247 80.469575 -92.043280 -4.366492 -10.031689 6.148103 0.336593 -0.786485 0.164393 15.448528 -60.947642 -12.032195 25.196288 84.250348 31.556071 -3.529039 -10.963342 1.668800 0.140406 0.413555 0.073976
-104.041504 51.694903 -39.774966 177.552128 -19.639435 -0.490465 -1.926750 11.641147 0.749225 -0.134867 0.828564 0.096508 -0.236390 1.418829 0.183193 -1.674282 10.629185 1.220320 0.136231 16.603858 -2.488397 0.708162 -8.264737 -2.647015 4.795626 15.093735 11.876936 30.326731 -6.485222 -29.709779 82.269631 -59.418814 -121.074106 3.572311 -3.163780 -1.847323 -6.227946 15.068502 -15.354062 -32.693630 -0.910608 30.004938 -55.843616 -76.984806 100.504627 11.573780 -0.669196 10.533690 -16.921956 -62.502634 10.192010 -83.791131 80.455146 -91.934448 -4.358739 -10.026476 6.153588 0.332480 -0.780761 0.164097 15.445675 -60.956228 -12.024302 25.210466 84.252881 31.577128 -3.530090 -10.958756 1.673788 0.139469 0.410339 0.071809
-104.042746 51.693112 -39.770355 177.527334 -19.619928 -0.527448 -1.890380 11.622654 0.787266 -0.136860 0.829020 0.101441 -0.236963 1.418805 0.186037 -1.671083 10.631019 1.224501 0.133739 16.611890 -2.489264 0.707545 -8.236759 -2.646159 4.787655 15.099099 11.870163 30.284120 -6.496875 -29.680702 82.327417 -59.431289 -121.128072 3.540490 -3.124582 -1.891010 -6.230954 15.076584 -15.347458 -32.685543 -0.910053 30.008266 -55.795793 -76.935751 100.479953 11.535421 -0.684388 10.657733 -16.965327 -62.500022 10.274276 -83.675452 80.447541 -91.815964 -4.313463 -10.053813 6.172716 0.287198 -0.744434 0.141924 15.431165 -60.991896 -11.974140 25.236188 84.258678 31.613400 -3.511547 -10.945356 1.681253 0.120632 0.397362 0.063862
-104.047937 51.692684 -39.770013 177.534704 -19.625281 -0.551479 -1.890104 11.628937 0.798899 -0.138125 0.829192 0.107212 -0.235506 1.419878 0.182324 -1.668668 10.633711 1.234192 0.133017 16.619497 -2.488461 0.705594 -8.238708 -2.645879 4.784723 15.104328 11.867570 30.241461 -6.509075 -29.651618 82.345321 -59.500645 -121.194616 3.545918 -3.135443 -1.897030 -6.221486 15.089195 -15.335388 -32.690099 -0.913518 30.013227 -55.719413 -76.873271 100.431138 11.504399 -0.691376 10.746028 -16.984619 -62.480263 10.297408 -83.587415 80.435692 -91.728971 -4.302162 -10.041524 6.175935 0.282307 -0.749220 0.146895 15.407647 -60.995643 -11.951231 25.273190 84.261878 31.656397 -3.514192 -10.942328 1.684169 0.127543 0.395603 0.064904
